<svg width="30" height="30" viewBox="0 0 30 30" fill="none" xmlns="http://www.w3.org/2000/svg">
<path d="M15 1.19995C7.38572 1.19995 1.2 7.38567 1.2 15C1.2 17.4474 1.87121 19.7315 2.99063 21.7253L1.22227 28.0382C1.19402 28.1393 1.19274 28.2459 1.21856 28.3476C1.24439 28.4492 1.29641 28.5424 1.36945 28.6177C1.44249 28.6929 1.53399 28.7478 1.63482 28.7767C1.73566 28.8056 1.84231 28.8075 1.94414 28.7824L8.52656 27.1511C10.4608 28.1837 12.6556 28.8 15 28.8C22.6143 28.8 28.8 22.6142 28.8 15C28.8 7.38567 22.6143 1.19995 15 1.19995ZM15 2.39995C21.9657 2.39995 27.6 8.03423 27.6 15C27.6 21.9657 21.9657 27.6 15 27.6C12.7668 27.6 10.6753 27.0177 8.85703 26.0003C8.72405 25.926 8.56778 25.9051 8.41992 25.9417L2.65547 27.3703L4.20117 21.8554C4.22329 21.7775 4.2294 21.6959 4.21913 21.6155C4.20885 21.5352 4.18242 21.4577 4.14141 21.3878C3.03641 19.5141 2.4 17.334 2.4 15C2.4 8.03423 8.03428 2.39995 15 2.39995ZM9.98555 7.79995C9.60092 7.79995 9.05163 7.94305 8.60039 8.42925C8.32936 8.72128 7.2 9.82166 7.2 11.7562C7.2 13.7731 8.59884 15.5135 8.76797 15.7371H8.76914V15.7382C8.7531 15.7171 8.98382 16.0513 9.2918 16.4519C9.59978 16.8525 10.0304 17.3787 10.5715 17.9484C11.6536 19.0877 13.175 20.4044 15.0633 21.2097C15.9329 21.58 16.6189 21.8036 17.1387 21.9667C18.1019 22.2692 18.9792 22.2232 19.6383 22.1261C20.1316 22.0535 20.6741 21.8166 21.2109 21.4769C21.7478 21.1372 22.2739 20.7148 22.5059 20.073C22.6721 19.6129 22.7566 19.1877 22.7871 18.8378C22.8024 18.6629 22.8043 18.5085 22.793 18.3656C22.7816 18.2226 22.7938 18.1131 22.6605 17.8945C22.3812 17.4358 22.0649 17.4239 21.7348 17.2605C21.5514 17.1697 21.0292 16.9147 20.5055 16.6652C19.9823 16.4159 19.5294 16.1951 19.2504 16.0957C19.0741 16.0322 18.8589 15.941 18.5484 15.9761C18.2379 16.0113 17.9313 16.2353 17.7527 16.5C17.5835 16.7508 16.9022 17.555 16.6945 17.7914C16.6918 17.7897 16.7098 17.798 16.6277 17.7574C16.3709 17.6302 16.0567 17.5221 15.5918 17.2769C15.1269 17.0317 14.5454 16.6695 13.909 16.1085V16.1074C12.9618 15.2735 12.2984 14.2266 12.0891 13.875C12.1032 13.8582 12.0874 13.8785 12.1172 13.8492L12.1184 13.848C12.3323 13.6373 12.5218 13.3857 12.682 13.2011C12.9092 12.9395 13.0094 12.7088 13.118 12.4933C13.3344 12.0638 13.2139 11.5912 13.0887 11.3425V11.3414C13.0973 11.3586 13.0209 11.19 12.9387 10.9957C12.8562 10.8007 12.751 10.548 12.6387 10.2785C12.414 9.73945 12.1632 9.1349 12.0141 8.78081V8.77964C11.8384 8.36256 11.6006 8.0621 11.2898 7.91714C10.9791 7.77218 10.7045 7.81339 10.6934 7.81284H10.6922C10.4704 7.80261 10.227 7.79995 9.98555 7.79995ZM9.98555 8.99995C10.2169 8.99995 10.4449 9.00277 10.6359 9.01167C10.8324 9.02146 10.8202 9.02227 10.7824 9.00464C10.744 8.98673 10.7961 8.98092 10.9078 9.24605C11.0539 9.59276 11.3059 10.1995 11.5313 10.7402C11.6439 11.0105 11.7494 11.2642 11.8336 11.4632C11.9178 11.6622 11.9634 11.7733 12.0164 11.8792V11.8804L12.0176 11.8816C12.0695 11.984 12.0649 11.9185 12.0469 11.9542C11.9203 12.2055 11.9031 12.2672 11.775 12.4148C11.58 12.6395 11.3811 12.89 11.2758 12.9937C11.1837 13.0842 11.0175 13.2252 10.9137 13.5011C10.8097 13.7775 10.8582 14.1567 11.025 14.4398C11.247 14.8167 11.9786 16.0075 13.1156 17.0085C13.8317 17.6398 14.4987 18.0575 15.0316 18.3386C15.5645 18.6197 15.9986 18.7839 16.0957 18.832C16.3263 18.9461 16.5784 19.0348 16.8715 18.9996C17.1646 18.9644 17.4173 18.7865 17.5781 18.6046L17.5793 18.6035C17.7934 18.3608 18.4295 17.6344 18.7348 17.1867C18.7477 17.1912 18.7435 17.1877 18.8449 17.2242V17.2253H18.8461C18.8924 17.2418 19.4726 17.5015 19.9898 17.748C20.5071 17.9945 21.0321 18.2507 21.2027 18.3351C21.4489 18.457 21.5653 18.5363 21.5953 18.5367C21.5973 18.5895 21.5994 18.6467 21.5918 18.7335C21.5708 18.9745 21.5063 19.3081 21.3773 19.6652C21.3142 19.84 20.985 20.2005 20.5699 20.4632C20.1548 20.7259 19.6496 20.9115 19.4625 20.939C18.8999 21.0219 18.232 21.0522 17.4984 20.8218C16.9898 20.6622 16.3556 20.4555 15.5344 20.1058C13.8689 19.3955 12.4534 18.1869 11.4422 17.1222C10.9366 16.5899 10.5315 16.0944 10.2434 15.7195C9.95572 15.3453 9.83012 15.1506 9.72539 15.0128L9.72422 15.0117C9.53832 14.7658 8.4 13.1825 8.4 11.7562C8.4 10.2467 9.1011 9.65481 9.48047 9.24605C9.67963 9.03145 9.89737 8.99995 9.98555 8.99995Z" fill="#1A3C7D"/>
</svg>
