<svg width="50" height="50" viewBox="0 0 50 50" fill="none" xmlns="http://www.w3.org/2000/svg">
<path d="M5.00001 7.99999C4.27874 7.98979 3.60785 8.36874 3.24423 8.99174C2.88062 9.61474 2.88062 10.3852 3.24423 11.0082C3.60784 11.6312 4.27873 12.0102 5.00001 12H45C45.7213 12.0102 46.3922 11.6312 46.7558 11.0082C47.1194 10.3852 47.1194 9.61474 46.7558 8.99174C46.3922 8.36874 45.7213 7.98979 45 7.99999H5.00001ZM5.00001 23C4.27874 22.9898 3.60785 23.3687 3.24423 23.9917C2.88062 24.6147 2.88062 25.3852 3.24423 26.0082C3.60784 26.6312 4.27873 27.0102 5.00001 27H45C45.7213 27.0102 46.3922 26.6312 46.7558 26.0082C47.1194 25.3852 47.1194 24.6147 46.7558 23.9917C46.3922 23.3687 45.7213 22.9898 45 23H5.00001ZM5.00001 38C4.27874 37.9898 3.60785 38.3687 3.24423 38.9917C2.88062 39.6147 2.88062 40.3852 3.24423 41.0082C3.60784 41.6312 4.27873 42.0102 5.00001 42H45C45.7213 42.0102 46.3922 41.6312 46.7558 41.0082C47.1194 40.3852 47.1194 39.6147 46.7558 38.9917C46.3922 38.3687 45.7213 37.9898 45 38H5.00001Z" fill="#1A3C7D"/>
</svg>
